<svg width="512" height="512" viewBox="0 0 512 512" fill="none" xmlns="http://www.w3.org/2000/svg">
<path d="M512 256.954C512 115.027 397.4 0 256 0C114.6 0 0 115.027 0 256.954C0 377.4 82.7 478.576 194.2 506.379V335.445H141.4V256.954H194.2V223.128C194.2 135.704 233.6 95.1531 319.2 95.1531C335.4 95.1531 363.4 98.365 374.9 101.577V172.641C368.9 172.038 358.4 171.637 345.3 171.637C303.3 171.637 287.1 187.596 287.1 229.05V256.954H370.7L356.3 335.445H287V512C413.8 496.643 512 388.341 512 256.954Z" fill="white"/>
</svg>
