<svg width="512" height="512" viewBox="0 0 512 512" fill="none" xmlns="http://www.w3.org/2000/svg">
<circle cx="256" cy="256" r="256" fill="white"/>
<path d="M117.156 127C99.4033 127 85 141.389 85 159.125C85 169.231 89.7564 178.735 97.8625 184.825L243.638 294.05C251.275 299.739 261.725 299.739 269.363 294.05L415.137 184.825C423.244 178.735 428 169.231 428 159.125C428 141.389 413.597 127 395.844 127H117.156ZM85 201.958V341.167C85 364.792 104.227 384 127.875 384H385.125C408.773 384 428 364.792 428 341.167V201.958L282.225 311.183C266.951 322.628 246.049 322.628 230.775 311.183L85 201.958Z" fill="black"/>
</svg>
