<svg width="512" height="512" viewBox="0 0 512 512" fill="none" xmlns="http://www.w3.org/2000/svg">
<path fill-rule="evenodd" clip-rule="evenodd" d="M256 512C397.385 512 512 397.385 512 256C512 114.615 397.385 0 256 0C114.615 0 0 114.615 0 256C0 397.385 114.615 512 256 512ZM85 159.125C85 141.389 99.4033 127 117.156 127H395.844C413.597 127 428 141.389 428 159.125C428 169.231 423.244 178.735 415.137 184.825L269.362 294.05C261.725 299.739 251.275 299.739 243.638 294.05L97.8625 184.825C89.7565 178.735 85 169.231 85 159.125ZM85 341.167V201.958L230.775 311.183C246.049 322.628 266.951 322.628 282.225 311.183L428 201.958V341.167C428 364.792 408.773 384 385.125 384H127.875C104.227 384 85 364.792 85 341.167Z" fill="white"/>
</svg>
