<svg width="512" height="512" viewBox="0 0 512 512" fill="none" xmlns="http://www.w3.org/2000/svg">
<path fill-rule="evenodd" clip-rule="evenodd" d="M256 512C397.385 512 512 397.385 512 256C512 114.615 397.385 0 256 0C114.615 0 0 114.615 0 256C0 397.385 114.615 512 256 512ZM175.386 107.828C186.677 104.743 198.491 110.505 202.973 121.331V121.389L226.253 177.261C230.211 186.748 227.475 197.689 219.502 204.208L190.809 227.663C210.19 268.636 243.364 301.811 284.337 321.191L307.85 292.499C314.31 284.525 325.31 281.79 334.797 285.747L390.67 309.027C401.495 313.509 407.257 325.323 404.172 336.614L390.204 387.831C387.41 397.958 378.215 405 367.739 405C223.75 405 107 288.25 107 144.262C107 133.785 114.042 124.59 124.169 121.796L175.386 107.828Z" fill="white"/>
</svg>
