<svg width="512" height="512" viewBox="0 0 512 512" fill="none" xmlns="http://www.w3.org/2000/svg">
<circle cx="256" cy="256" r="256" fill="white"/>
<path d="M202.973 121.33C198.491 110.505 186.677 104.743 175.386 107.828L124.169 121.796C114.042 124.59 107 133.785 107 144.261C107 288.25 223.75 405 367.738 405C378.215 405 387.41 397.958 390.204 387.831L404.172 336.614C407.257 325.323 401.495 313.509 390.67 309.027L334.797 285.747C325.31 281.789 314.31 284.525 307.85 292.498L284.337 321.191C243.364 301.81 210.19 268.636 190.809 227.663L219.502 204.208C227.475 197.69 230.211 186.748 226.253 177.261L202.973 121.389V121.33Z" fill="black"/>
</svg>
